<?xml version="1.0" standalone="no"?>
<!DOCTYPE svg PUBLIC "-//W3C//DTD SVG 20010904//EN"
 "http://www.w3.org/TR/2001/REC-SVG-20010904/DTD/svg10.dtd">
<svg version="1.0" xmlns="http://www.w3.org/2000/svg"
 width="314.000000pt" height="314.000000pt" viewBox="0 0 314.000000 314.000000"
 preserveAspectRatio="xMidYMid meet">
<metadata>
Created by potrace 1.11, written by Peter Selinger 2001-2013
</metadata>
<g transform="translate(0.000000,314.000000) scale(0.100000,-0.100000)"
fill="#000000" stroke="none">
<path d="M1449 2976 c-2 -2 -29 -6 -59 -9 -149 -16 -279 -56 -435 -132 -109
-53 -205 -111 -205 -123 0 -4 15 -8 33 -9 17 -1 43 -4 57 -7 37 -7 196 -31
227 -35 8 -1 11 -24 8 -78 -6 -140 -8 -244 -4 -247 2 -2 34 13 70 34 243 138
574 144 833 14 136 -68 263 -178 346 -298 166 -243 204 -577 95 -851 -16 -39
-47 -101 -70 -140 -44 -73 -46 -81 -61 -270 -3 -33 -6 -73 -8 -88 -3 -32 6
-40 49 -43 16 -1 30 -3 30 -4 0 -1 11 -3 25 -5 14 -2 54 -10 90 -18 36 -8 86
-18 111 -21 44 -7 47 -5 80 33 19 21 41 49 49 61 8 12 27 40 43 61 15 21 27
41 27 43 0 3 13 27 28 53 54 93 115 257 142 383 35 165 35 417 0 580 -77 359
-295 678 -605 887 -124 83 -348 179 -457 197 -21 3 -59 11 -85 17 -46 11 -345
24 -354 15z"/>
<path d="M474 2457 c-36 -45 -68 -89 -72 -97 -3 -8 -15 -28 -28 -45 -42 -57
-108 -198 -143 -305 -63 -195 -84 -438 -55 -645 58 -414 313 -791 682 -1012
145 -86 353 -157 537 -182 82 -11 326 -7 405 8 208 37 390 109 554 220 78 53
93 67 73 68 -19 2 -82 11 -82 13 0 1 -11 3 -25 4 -21 3 -67 10 -190 30 -14 3
-27 5 -30 6 -3 2 -8 2 -12 1 -4 0 -6 36 -3 82 9 188 8 211 -3 215 -7 2 -12 -1
-12 -7 0 -6 -5 -11 -10 -11 -6 0 -27 -11 -48 -23 -105 -67 -292 -115 -442
-115 -239 0 -459 90 -630 258 -129 126 -195 236 -245 406 -36 121 -42 302 -15
427 25 113 70 225 126 308 48 72 59 116 68 254 2 39 5 70 6 70 1 0 2 21 3 47
3 51 11 45 -93 61 -14 2 -61 11 -105 20 -154 31 -136 36 -211 -56z"/>
<path d="M1119 2025 c-1 0 -3 -203 -4 -451 l-2 -452 452 0 451 0 0 449 -1 449
-45 0 c-25 0 -226 1 -448 3 -221 1 -403 2 -403 2z m726 -440 c0 -143 -2 -268
-4 -277 -3 -17 -24 -18 -277 -18 -151 0 -275 3 -275 8 -1 4 -2 130 -3 280 l-2
272 280 -2 281 -3 0 -260z"/>
</g>
</svg>
